# xmcd
#
# Track frame offsets:
# 150
# 21353
# 34960
# 48448
# 62250
# 74050
# 86580
# 101858
# 115300
# 128873
# 141515
#
# Disc length: 2064 seconds
#
# Revision: 1
# Processed by: cddbd v1.5PL3 Copyright (c) Steve Scherf et al.
# Submitted via: Easy CD Ripper v2.13
#
DISCID=a6080e0b
DTITLE=Jackson 5 - Maybe Tomorrow
DYEAR=1971
DGENRE=R&B
TTITLE0=Maybe Tomorrow - Jackson 5
TTITLE1=She's Good - Jackson 5
TTITLE2=Never Can Say Goodbye - Jackson 5
TTITLE3=The Wall - Jackson 5
TTITLE4=Petals - Jackson 5
TTITLE5=Sixteen Candles - Jackson 5
TTITLE6=(We've Got) Blue Skies - Jackson 5
TTITLE7=My Little Baby - Jackson 5
TTITLE8=Its Great To Be Here - Jackson 5
TTITLE9=Honey Chile - Jackson 5
TTITLE10=I Will Find My Way - Jackson 5
EXTD=
EXTT0=
EXTT1=
EXTT2=
EXTT3=
EXTT4=
EXTT5=
EXTT6=
EXTT7=
EXTT8=
EXTT9=
EXTT10=
PLAYORDER=
